<svg xmlns="http://www.w3.org/2000/svg" version="1.0" width="645.000000" height="702.000000" preserveAspectRatio="xMidYMid meet"><rect id="backgroundrect" width="100%" height="100%" x="0" y="0" fill="none" stroke="none"/>
<metadata>
Created by potrace 1.10, written by Peter Selinger 2001-2011
</metadata>

<g class="currentLayer" style=""><title>Layer 1</title><rect fill="#ffffff" stroke-dashoffset="" fill-rule="nonzero" id="svg_29" x="-3" y="-3" width="648" height="708" style="color: rgb(0, 0, 0);" class="selected" fill-opacity="1"/><g transform="translate(0,702) scale(0.10000000149011612,-0.10000000149011612) " fill="#20124d" stroke="none" id="svg_1" class="">
<path d="M1000 6860 c-198 -24 -412 -130 -546 -272 -46 -49 -134 -163 -134 -174 0 -4 -6 -15 -13 -23 -21 -24 -67 -137 -90 -221 -30 -107 -30 -369 1 -481 11 -42 25 -85 30 -95 5 -11 20 -41 32 -69 112 -246 340 -432 619 -504 103 -27 343 -30 436 -5 33 8 99 16 147 16 78 1 92 -2 127 -25 64 -42 111 -122 111 -189 0 -13 -24 -73 -54 -131 -29 -58 -56 -114 -59 -124 -3 -10 -15 -43 -27 -73 -54 -139 -84 -272 -101 -453 -22 -233 17 -512 101 -727 12 -30 24 -64 27 -74 4 -11 26 -57 50 -104 34 -66 43 -95 43 -134 0 -81 -45 -155 -120 -200 -35 -21 -132 -42 -166 -35 -228 42 -325 46 -459 22 -84 -15 -160 -36 -191 -53 -11 -6 -37 -19 -59 -29 -128 -58 -284 -199 -369 -333 -60 -94 -88 -159 -122 -280 -26 -89 -26 -382 -1 -450 9 -25 17 -53 17 -62 0 -9 6 -29 14 -45 8 -15 26 -53 40 -83 98 -215 309 -398 551 -479 97 -32 250 -54 332 -47 266 24 469 118 633 292 134 142 199 268 240 463 24 112 26 260 4 351 -8 35 -16 114 -17 175 -2 103 0 112 23 145 78 112 185 128 335 53 44 -22 100 -48 125 -58 25 -9 56 -22 70 -27 157 -62 368 -98 567 -98 116 0 330 21 351 34 5 3 33 10 63 15 51 9 207 59 246 80 124 63 174 81 224 82 108 3 162 -24 221 -110 28 -41 32 -53 31 -116 0 -38 -8 -94 -17 -124 -33 -110 -17 -357 31 -486 56 -148 67 -172 117 -250 47 -73 142 -173 216 -229 71 -52 82 -60 156 -95 316 -154 690 -119 971 92 85 63 115 93 179 177 57 75 65 89 94 150 12 25 26 53 32 64 58 107 83 364 53 531 -45 246 -190 470 -389 603 -77 51 -197 112 -222 112 -8 0 -25 5 -36 11 -37 20 -250 50 -359 51 -79 0 -113 -4 -137 -16 -17 -9 -38 -16 -47 -16 -9 0 -39 -7 -67 -17 -48 -15 -54 -15 -105 2 -39 14 -66 31 -94 64 -48 54 -52 70 -47 164 3 57 11 87 40 147 62 129 115 273 132 360 4 19 14 64 23 100 24 95 24 508 0 598 -9 35 -17 71 -17 80 0 45 -102 322 -150 407 -30 53 -34 97 -15 162 21 72 73 137 130 163 55 25 144 26 229 3 95 -25 327 -23 431 6 187 50 307 117 427 234 194 190 288 411 288 677 0 352 -186 664 -493 829 -68 37 -113 54 -217 83 -108 30 -342 30 -450 0 -126 -35 -197 -67 -291 -128 -183 -121 -325 -312 -382 -514 -46 -164 -62 -367 -36 -465 24 -92 31 -143 27 -201 -3 -53 -9 -68 -40 -107 -45 -54 -97 -81 -160 -81 -36 0 -70 12 -155 54 -59 29 -117 57 -128 61 -11 4 -41 17 -67 28 -26 12 -58 21 -71 21 -13 0 -43 6 -68 14 -128 40 -231 51 -459 50 -177 0 -238 -4 -288 -17 -35 -9 -72 -17 -81 -17 -24 0 -233 -69 -245 -81 -6 -5 -16 -9 -23 -9 -7 0 -55 -20 -105 -45 -106 -52 -158 -57 -231 -25 -46 20 -92 70 -116 125 -21 50 -25 153 -7 221 33 128 18 348 -35 507 -89 265 -284 470 -549 574 -121 48 -318 71 -460 53z m275 -438 c85 -30 162 -80 220 -144 30 -34 55 -66 55 -73 0 -6 5 -16 12 -23 18 -18 39 -81 52 -162 48 -277 -138 -532 -424 -579 -63 -11 -87 -10 -150 2 -84 17 -145 38 -162 55 -7 7 -18 12 -24 12 -21 0 -140 122 -170 175 -48 82 -64 149 -64 260 1 111 14 164 67 255 55 96 158 179 273 222 65 24 249 24 315 0z m4070 0 c163 -59 272 -169 328 -329 26 -73 26 -232 1 -304 -52 -149 -159 -265 -294 -317 -85 -33 -171 -43 -255 -31 -180 27 -314 128 -397 297 -31 65 -32 70 -32 202 l0 135 38 77 c60 121 152 208 274 259 59 24 80 28 177 28 83 1 123 -4 160 -17z m-1935 -1468 c215 -58 355 -132 500 -263 310 -279 435 -727 316 -1136 -61 -208 -190 -402 -361 -540 -239 -194 -516 -274 -826 -239 -146 16 -224 39 -354 101 -87 42 -92 45 -185 114 -418 313 -559 887 -332 1359 67 139 156 253 298 381 130 116 381 224 564 240 107 10 315 0 380 -17z m-2190 -2588 c131 -27 251 -109 322 -218 44 -70 58 -108 73 -200 9 -60 9 -93 0 -155 -15 -94 -34 -141 -87 -212 -112 -148 -232 -211 -408 -211 -124 0 -200 24 -295 95 -91 67 -146 143 -185 252 -27 76 -28 236 -2 308 30 87 78 160 143 219 63 56 169 115 212 117 12 0 31 4 42 9 31 13 113 12 185 -4z m4076 -1 c100 -21 167 -59 250 -140 92 -91 128 -162 144 -281 24 -189 -53 -371 -205 -480 -98 -71 -172 -94 -295 -94 -183 1 -319 76 -424 235 -59 90 -71 135 -70 275 0 123 1 126 39 205 66 140 200 248 345 280 77 17 134 17 216 0z" id="svg_2"/>
<path d="M2890 4716 c-14 -8 -64 -32 -111 -55 -89 -42 -229 -143 -229 -164 0 -7 15 -25 33 -41 17 -16 66 -58 107 -94 41 -36 74 -70 73 -74 -2 -4 -18 -27 -35 -51 -32 -42 -44 -64 -87 -159 l-21 -48 -47 7 c-27 3 -60 12 -75 19 -15 8 -35 14 -45 14 -9 0 -36 7 -60 16 -54 21 -69 14 -82 -33 -17 -58 -13 -231 5 -294 19 -64 29 -78 46 -61 7 7 21 12 32 12 12 0 34 7 50 15 15 8 40 15 55 15 14 1 37 7 51 15 46 26 75 19 95 -22 10 -21 22 -45 26 -53 5 -8 13 -24 18 -35 5 -11 27 -41 50 -67 23 -25 41 -51 41 -57 0 -10 -55 -67 -159 -164 -28 -26 -51 -50 -51 -53 0 -15 160 -134 180 -134 5 0 21 -6 37 -14 15 -8 51 -26 80 -40 l52 -25 16 32 c9 18 20 50 25 72 5 22 14 58 19 80 6 22 13 52 16 67 3 15 13 31 23 35 9 4 80 7 158 5 l140 -3 17 -52 c19 -60 37 -136 44 -190 6 -41 19 -55 36 -38 6 6 19 11 29 11 17 0 56 15 128 49 53 25 142 85 173 119 26 27 27 31 12 39 -36 21 -194 159 -200 176 -4 11 4 27 24 48 30 30 101 141 101 159 0 19 36 70 50 70 8 -1 26 -7 40 -15 14 -8 35 -14 46 -15 12 0 35 -7 50 -15 16 -8 39 -15 52 -15 12 0 34 -7 47 -16 31 -20 40 -14 59 43 22 64 22 298 1 349 -12 28 -19 35 -32 29 -10 -4 -35 -11 -56 -15 -21 -4 -44 -13 -50 -19 -6 -6 -25 -11 -42 -11 -16 0 -39 -7 -49 -15 -11 -8 -35 -15 -53 -15 -28 0 -33 4 -33 24 0 13 -7 29 -15 36 -8 7 -15 18 -15 26 0 17 -54 100 -92 140 l-29 31 78 76 c43 42 93 89 111 105 21 19 30 35 26 46 -12 31 -262 176 -305 176 -5 0 -21 7 -34 16 -33 22 -51 13 -58 -28 -8 -48 -33 -147 -48 -188 -6 -19 -13 -40 -15 -46 -1 -7 -53 -13 -146 -17 -135 -5 -144 -4 -160 15 -10 11 -18 34 -18 52 0 17 -7 44 -15 60 -8 15 -15 38 -15 51 0 19 -36 116 -43 115 -1 0 -13 -7 -27 -14z m353 -544 c72 -23 127 -64 166 -124 29 -43 31 -54 31 -133 0 -94 -10 -123 -65 -183 -51 -57 -118 -85 -205 -85 -109 0 -178 38 -236 129 -31 49 -34 59 -34 134 0 80 14 124 52 170 24 28 96 80 111 80 8 0 30 7 48 15 44 19 62 18 132 -3z" id="svg_3"/>
<path d="M3111 3984 c-26 -21 -31 -33 -31 -69 0 -63 24 -88 87 -89 71 -1 93 20 93 90 0 49 -2 54 -34 73 -45 28 -78 26 -115 -5z" id="svg_4"/>
<path d="M3446 1692 c-6 -11 -10 -792 -3 -798 8 -8 106 -11 118 -3 7 4 11 51 10 133 -2 108 0 126 14 126 15 0 92 -109 121 -170 4 -8 20 -32 37 -52 29 -38 29 -38 103 -38 56 0 74 3 74 14 0 7 -7 19 -15 26 -8 7 -15 17 -15 22 0 6 -13 27 -30 48 -16 21 -30 40 -30 43 0 3 -22 38 -50 79 -27 40 -50 78 -50 85 0 7 20 34 44 60 105 115 116 129 114 148 -2 16 -12 21 -43 23 -78 7 -96 -3 -155 -84 -65 -90 -95 -124 -109 -124 -7 0 -12 81 -13 233 l-3 232 -57 3 c-31 2 -59 -1 -62 -6z" id="svg_5"/>
<path d="M2515 1442 c-72 -25 -95 -40 -106 -69 -14 -36 13 -77 44 -67 12 3 30 13 39 21 11 10 43 15 98 16 76 2 82 0 100 -23 21 -28 33 -79 25 -102 -5 -11 -31 -17 -104 -22 -158 -10 -218 -47 -228 -138 -12 -118 27 -163 166 -192 27 -6 108 19 132 40 21 19 46 18 57 -3 12 -21 87 -27 103 -7 8 9 10 79 7 233 l-3 219 -30 37 c-16 20 -48 44 -70 53 -58 22 -170 24 -230 4z m189 -328 c38 -37 5 -111 -61 -139 -49 -21 -67 -19 -102 11 -35 29 -39 58 -13 91 36 47 144 69 176 37z" id="svg_6"/>
<path d="M3181 1415 c-51 -43 -77 -51 -64 -20 3 9 0 22 -7 30 -15 18 -81 20 -98 3 -9 -9 -12 -83 -12 -270 0 -293 -5 -278 88 -270 l52 4 0 165 c0 135 3 170 16 193 21 35 94 82 114 74 44 -19 55 -11 58 43 4 72 -9 93 -56 93 -31 0 -49 -9 -91 -45z" id="svg_7"/>
<path d="M229 688 c-22 -8 -25 -26 -6 -33 6 -3 280 -6 607 -8 l595 -2 3 -192 2 -193 30 0 30 0 2 193 3 192 355 0 355 0 2 -189 c1 -103 4 -190 7 -193 2 -3 21 1 42 9 29 10 38 10 41 1 3 -8 21 -13 42 -13 48 0 86 33 101 89 15 56 4 106 -33 142 -31 32 -45 33 -114 13 -22 -6 -23 -4 -23 70 l0 76 738 -3 737 -2 1 -190 1 -190 29 0 c28 0 29 2 29 50 0 51 6 62 28 48 14 -10 51 -61 60 -86 6 -16 56 -25 70 -11 7 7 -8 36 -45 85 -36 47 -35 69 2 105 37 36 39 64 6 64 -17 0 -36 -14 -62 -45 -20 -25 -42 -44 -47 -42 -13 4 -12 196 1 209 5 5 49 8 98 6 l89 -3 5 -190 5 -190 28 -3 27 -3 0 84 c0 74 3 86 23 105 26 24 61 29 74 9 4 -6 10 -52 13 -102 5 -89 5 -90 33 -93 17 -2 27 1 28 10 3 65 -4 184 -13 203 -16 35 -59 50 -103 35 -24 -8 -40 -9 -46 -3 -6 6 -9 39 -7 74 l3 64 1009 5 c822 4 1010 7 1014 18 2 7 -4 15 -14 18 -31 8 -5834 10 -5855 2z m2139 -243 c18 -39 14 -89 -9 -119 -24 -31 -36 -32 -66 -7 -29 24 -32 104 -6 133 24 27 67 23 81 -7z" id="svg_8"/>
<path d="M1014 616 c-12 -31 0 -51 31 -51 24 0 31 5 33 24 6 36 -51 60 -64 27z" id="svg_9"/>
<path d="M3001 616 c-16 -19 2 -56 28 -56 28 0 47 28 34 48 -13 22 -47 27 -62 8z" id="svg_10"/>
<path d="M2843 583 c-7 -3 -13 -11 -13 -18 0 -8 -11 -26 -25 -41 -30 -33 -31 -40 -5 -54 17 -9 20 -21 20 -73 0 -39 7 -75 18 -97 16 -32 21 -35 62 -35 35 0 45 4 48 18 2 11 -3 17 -16 17 -32 0 -45 27 -46 98 l-1 67 60 0 60 0 5 -100 c5 -99 5 -100 30 -100 l25 0 3 114 c2 75 -1 118 -9 127 -8 10 -34 14 -83 14 -74 0 -96 10 -96 41 0 18 -18 29 -37 22z" id="svg_11"/>
<path d="M283 508 c-21 -7 -33 -17 -33 -29 0 -15 9 -17 63 -16 60 2 62 1 62 -23 0 -23 -5 -25 -50 -30 -70 -7 -95 -26 -95 -71 0 -24 7 -42 23 -57 21 -20 32 -22 108 -19 71 3 84 6 83 20 0 9 -1 60 -2 112 l-2 95 -36 15 c-41 17 -74 18 -121 3z m95 -159 c4 -33 -35 -57 -67 -40 -27 15 -27 36 2 56 32 22 61 16 65 -16z" id="svg_12"/>
<path d="M573 505 c-40 -17 -63 -61 -63 -119 0 -88 40 -126 133 -126 39 0 61 5 78 19 34 28 15 44 -33 29 -20 -6 -48 -8 -62 -4 -27 7 -64 52 -52 64 4 4 43 9 87 11 l79 3 0 34 c0 82 -82 126 -167 89z m105 -62 c3 -17 -3 -24 -22 -29 -38 -9 -76 3 -76 25 0 27 10 32 55 29 33 -2 41 -7 43 -25z" id="svg_13"/>
<path d="M822 508 c-8 -8 -12 -51 -12 -125 0 -96 3 -115 16 -120 33 -13 45 9 47 83 2 79 12 98 64 119 30 13 33 17 23 35 -13 24 -22 25 -59 5 -26 -13 -30 -13 -41 0 -15 18 -22 19 -38 3z" id="svg_14"/>
<path d="M1020 500 c-6 -12 -9 -65 -8 -127 l3 -108 29 0 29 0 0 117 c-1 65 -4 122 -8 128 -10 16 -33 12 -45 -10z" id="svg_15"/>
<path d="M1193 508 c-22 -7 -33 -17 -33 -29 0 -17 6 -18 59 -13 54 6 60 5 71 -16 15 -29 10 -33 -55 -38 -44 -4 -60 -10 -75 -30 -26 -32 -25 -63 1 -96 16 -21 29 -26 63 -26 23 0 47 5 53 11 8 8 16 7 30 -2 42 -26 53 -7 53 90 0 50 -5 101 -11 115 -19 42 -87 56 -156 34z m85 -134 c33 -9 27 -38 -12 -59 -34 -19 -35 -19 -56 0 l-22 20 27 22 c29 25 30 25 63 17z" id="svg_16"/>
<path d="M1707 513 c-4 -3 -7 -62 -7 -130 l0 -123 30 0 30 0 0 83 c0 91 10 112 60 119 17 2 26 10 28 26 4 29 -21 39 -54 21 -20 -10 -29 -10 -44 -1 -22 14 -34 15 -43 5z" id="svg_17"/>
<path d="M1952 505 c-82 -36 -90 -183 -13 -228 61 -36 155 -13 187 45 18 32 17 103 -2 139 -27 53 -105 73 -172 44z m112 -57 c25 -35 20 -94 -9 -123 -31 -31 -49 -31 -80 0 -51 50 -24 145 40 145 24 0 39 -7 49 -22z" id="svg_18"/>
<path d="M2565 506 c-37 -16 -49 -31 -65 -79 -28 -88 28 -167 120 -167 81 0 130 52 130 137 -1 96 -92 150 -185 109z m109 -61 c25 -38 21 -92 -10 -120 -31 -29 -51 -31 -79 -9 -16 12 -20 27 -20 75 0 66 9 79 61 79 23 0 36 -7 48 -25z" id="svg_19"/>
<path d="M3210 509 c-48 -20 -69 -58 -70 -125 0 -58 2 -64 35 -93 28 -24 45 -31 79 -31 42 0 76 21 76 48 0 15 -36 16 -45 2 -11 -17 -41 -11 -63 13 -27 28 -30 92 -6 126 15 20 22 23 60 17 47 -6 65 7 42 30 -19 19 -77 26 -108 13z" id="svg_20"/>
<path d="M3424 506 c-32 -14 -44 -33 -44 -70 0 -22 31 -56 51 -56 20 0 69 -34 69 -47 0 -22 -48 -39 -71 -25 -28 18 -49 15 -49 -8 0 -25 29 -40 80 -40 88 0 132 77 73 127 -14 13 -33 23 -42 23 -23 1 -51 25 -51 44 0 13 10 16 49 16 57 0 71 12 39 34 -27 19 -62 20 -104 2z" id="svg_21"/>
<path d="M4353 508 c-25 -8 -33 -17 -33 -35 0 -21 3 -22 20 -13 12 6 42 10 68 8 36 -2 48 -7 50 -22 5 -25 -14 -36 -69 -36 -56 0 -83 -25 -83 -76 0 -26 7 -41 25 -55 25 -20 94 -26 104 -9 4 6 15 6 31 0 52 -20 54 -18 54 91 0 55 -4 109 -10 119 -19 35 -93 48 -157 28z m91 -134 c24 -9 19 -40 -9 -58 -30 -20 -40 -20 -59 -1 -31 32 21 77 68 59z" id="svg_22"/>
<path d="M4617 513 c-4 -3 -7 -62 -7 -130 l0 -123 30 0 30 0 0 83 c0 91 10 112 60 119 17 2 26 10 28 26 4 29 -21 39 -54 21 -20 -10 -29 -10 -44 -1 -22 14 -34 15 -43 5z" id="svg_23"/>
<path d="M4840 507 c-25 -8 -36 -19 -38 -35 -3 -21 -1 -22 18 -12 11 6 42 10 68 8 36 -2 48 -7 50 -22 5 -25 -14 -36 -69 -36 -56 0 -83 -25 -83 -76 0 -26 7 -41 25 -55 25 -20 94 -26 104 -9 4 6 15 6 31 0 52 -20 54 -18 54 91 0 55 -4 109 -10 119 -10 19 -60 40 -94 39 -12 0 -37 -5 -56 -12z m84 -133 c24 -9 19 -40 -9 -58 -30 -20 -40 -20 -59 -1 -31 32 21 77 68 59z" id="svg_24"/>
<path d="M5110 505 c-41 -22 -56 -58 -42 -102 7 -23 8 -41 2 -48 -5 -6 -9 -31 -8 -56 0 -24 -3 -55 -6 -69 -11 -40 12 -60 75 -67 74 -7 125 10 145 48 8 17 12 39 9 50 -10 32 -64 59 -117 59 -36 0 -48 4 -48 15 0 11 12 15 45 15 55 0 95 33 95 76 0 15 7 35 16 45 9 10 14 25 11 34 -8 20 -140 20 -177 0z m94 -57 c8 -14 6 -22 -11 -40 -19 -19 -26 -20 -48 -10 -24 11 -35 49 -18 66 13 13 66 1 77 -16z m13 -194 c11 -29 -11 -49 -52 -49 -45 0 -67 24 -46 49 18 22 89 22 98 0z" id="svg_25"/>
<path d="M5347 513 c-4 -3 -7 -82 -7 -174 0 -139 2 -168 15 -173 33 -12 45 4 45 61 0 53 1 55 23 48 12 -4 38 -9 57 -12 70 -9 113 72 95 177 -5 32 -14 46 -39 61 -38 23 -58 24 -97 3 -28 -14 -32 -14 -48 0 -19 17 -34 20 -44 9z m154 -59 c19 -23 15 -111 -6 -134 -24 -26 -37 -25 -69 5 -50 46 -24 145 38 145 13 0 29 -7 37 -16z" id="svg_26"/>
<path d="M5650 505 c-9 -11 -11 -41 -8 -105 4 -77 7 -93 28 -115 26 -28 76 -34 110 -13 16 10 24 10 40 0 47 -29 51 -21 48 116 l-3 127 -25 0 c-25 0 -25 -2 -28 -87 -3 -83 -4 -88 -31 -108 -16 -11 -34 -20 -40 -20 -21 0 -36 47 -41 130 -4 67 -8 85 -21 88 -9 1 -22 -4 -29 -13z" id="svg_27"/>
<path d="M5954 507 c-2 -7 -3 -65 -2 -128 l3 -114 25 0 c24 0 25 2 30 83 4 74 8 85 30 102 14 11 33 20 43 20 21 0 22 23 1 41 -12 10 -20 10 -35 1 -23 -15 -59 -16 -59 -2 0 15 -30 12 -36 -3z" id="svg_28"/>
</g></g></svg>